<svg width="52" height="36" viewBox="0 0 52 36" fill="none" xmlns="http://www.w3.org/2000/svg">
<path fill-rule="evenodd" clip-rule="evenodd" d="M4 18C4 10.268 10.268 4 18 4C19.3911 4 20.7347 4.20288 22.003 4.58066C18.3188 7.87666 16 12.6675 16 18C16 23.3325 18.3188 28.1233 22.003 31.4193C20.7347 31.7971 19.3911 32 18 32C10.268 32 4 25.732 4 18ZM26 34.129C23.5901 35.3266 20.8737 36 18 36C8.05888 36 0 27.9411 0 18C0 8.05887 8.05888 0 18 0C20.8737 0 23.5901 0.673412 26 1.87104C28.4099 0.673412 31.1263 0 34 0C43.9411 0 52 8.05887 52 18C52 27.9411 43.9411 36 34 36C31.1263 36 28.4099 35.3266 26 34.129ZM29.997 4.58066C31.2653 4.20288 32.6089 4 34 4C41.732 4 48 10.268 48 18C48 25.732 41.732 32 34 32C32.6089 32 31.2653 31.7971 29.997 31.4193C33.6812 28.1233 36 23.3325 36 18C36 12.6675 33.6812 7.87667 29.997 4.58066ZM26 6.50938C29.627 9.03927 32 13.2425 32 18C32 22.7575 29.627 26.9607 26 29.4906C22.373 26.9607 20 22.7575 20 18C20 13.2425 22.373 9.03927 26 6.50938Z" fill="white"/>
</svg>
