<svg width="300" height="300" viewBox="0 0 300 300" fill="none" xmlns="http://www.w3.org/2000/svg">
<circle cx="150" cy="150" r="150" fill="#A5FFBE"/>
<path d="M35.1685 108.983V103.125H70.8358V108.983L60.5449 110.229C60.467 115.38 60.389 120.615 60.311 125.932C60.311 131.167 60.311 136.443 60.311 141.761V149.363C60.311 153.767 60.311 158.503 60.311 163.571C60.389 168.639 60.467 173.791 60.5449 179.025H84.1672L87.4416 161.826H95.6276L94.4582 185.755H35.1685V179.898L44.9916 178.776C45.1475 173.541 45.2255 168.39 45.2255 163.322C45.2255 158.17 45.2255 153.227 45.2255 148.491V141.761C45.2255 136.36 45.2255 131.042 45.2255 125.808C45.2255 120.49 45.1475 115.256 44.9916 110.104L35.1685 108.983Z" fill="#303B33"/>
<path d="M131.981 187.5C126.68 187.5 121.885 186.254 117.597 183.761C113.387 181.268 110.035 177.654 107.54 172.918C105.045 168.182 103.798 162.532 103.798 155.968C103.798 149.321 105.084 143.63 107.657 138.894C110.308 134.158 113.777 130.544 118.065 128.051C122.353 125.559 126.992 124.312 131.981 124.312C136.971 124.312 141.609 125.559 145.897 128.051C150.185 130.544 153.654 134.158 156.305 138.894C158.956 143.547 160.281 149.238 160.281 155.968C160.281 162.615 158.995 168.307 156.422 173.043C153.927 177.696 150.536 181.268 146.248 183.761C142.038 186.254 137.282 187.5 131.981 187.5ZM131.981 181.393C136.191 181.393 139.387 179.316 141.57 175.162C143.831 171.007 144.962 164.651 144.962 156.093C144.962 138.977 140.635 130.419 131.981 130.419C123.405 130.419 119.117 138.977 119.117 156.093C119.117 164.651 120.209 171.007 122.392 175.162C124.575 179.316 127.771 181.393 131.981 181.393Z" fill="#303B33"/>
<path d="M197.533 187.5C192.231 187.5 187.437 186.254 183.149 183.761C178.939 181.268 175.587 177.654 173.092 172.918C170.597 168.182 169.35 162.532 169.35 155.968C169.35 149.321 170.636 143.63 173.209 138.894C175.859 134.158 179.329 130.544 183.617 128.051C187.904 125.559 192.543 124.312 197.533 124.312C202.522 124.312 207.161 125.559 211.449 128.051C215.737 130.544 219.206 134.158 221.857 138.894C224.507 143.547 225.833 149.238 225.833 155.968C225.833 162.615 224.546 168.307 221.974 173.043C219.479 177.696 216.087 181.268 211.8 183.761C207.59 186.254 202.834 187.5 197.533 187.5ZM197.533 181.393C201.743 181.393 204.939 179.316 207.122 175.162C209.383 171.007 210.513 164.651 210.513 156.093C210.513 138.977 206.186 130.419 197.533 130.419C188.957 130.419 184.669 138.977 184.669 156.093C184.669 164.651 185.76 171.007 187.943 175.162C190.126 179.316 193.323 181.393 197.533 181.393Z" fill="#303B33"/>
<path d="M254.107 187.5C249.429 187.5 245.765 186.254 243.115 183.761C240.464 181.268 239.139 177.28 239.139 171.797C239.139 169.886 239.139 168.099 239.139 166.437C239.216 164.693 239.255 162.615 239.255 160.206V133.66H230.602V127.179L240.074 125.932L244.518 108.858H253.99L253.522 126.057H267.555V133.66H253.405V170.426C253.405 173.5 253.951 175.743 255.043 177.156C256.212 178.568 257.732 179.274 259.603 179.274C261.708 179.274 264.086 178.236 266.737 176.159L269.543 179.274C268.062 181.85 266.035 183.886 263.462 185.381C260.89 186.794 257.771 187.5 254.107 187.5Z" fill="#303B33"/>
</svg>
